<?xml version="1.0" encoding="UTF-8" standalone="no"?>
<!-- Created with Inkscape (http://www.inkscape.org/) -->
<svg
   xmlns:svg="http://www.w3.org/2000/svg"
   xmlns="http://www.w3.org/2000/svg"
   version="1.0"
   width="542.93402"
   height="289.328"
   viewBox="0 0 542.934 289.328"
   id="svg2"
   xml:space="preserve"><defs
   id="defs78" />
	
		<g
   id="Layer_1">
			<path
   d="M 519.938,227.499 C 509.465,230.291 502.621,223.611 498.534,215.737 C 498.169,213.88 497.613,211.882 496.835,211.081 C 496.976,210.888 497.211,210.645 497.446,210.403 C 495.032,205.755 503.482,192.813 506.38,188.658 C 505.641,187.235 502.696,188.283 502.41,188.434 C 486.735,219.458 462.851,217.299 434.669,212.432 C 427.725,208.571 403.94,203.589 401.277,198.469 C 386.72,187.605 378.132,179.422 367.529,167.589 C 367.099,167.691 366.72,167.889 366.434,168.038 C 365.517,170.441 364.938,176.281 363.721,177.878 C 359.301,191.856 331.742,187.027 322.418,196.206 C 314.607,201.107 308.23,202.737 301.284,198.877 C 298.117,201.126 295.185,206.143 293.071,208.565 C 282.404,223.503 269.478,237.563 255.747,248.915 C 227.149,269.677 183.199,298.898 147.01,286.269 C 139.986,286.424 117.751,276.78 111.205,273.92 C 97.139,270.028 84.712,257.936 71.716,258.189 C 47.357,265.546 32.126,289.131 10.095,263.947 C 0.785,253.305 -2.508,238.882 1.994,221.004 C 6.491,203.125 26.959,189.671 35.586,215.539 C 35.927,219.215 34.962,227.783 29.929,226.907 C 25.447,218.277 27.589,208.492 15.202,217.337 C 9.132,226.513 8.95,236.362 13.261,246.286 C 13.407,246.33 13.549,246.38 13.697,246.423 C 13.33,247.575 17.377,252.578 18.741,254.28 C 29.626,262.715 38.868,260.563 48.004,248.708 C 67.935,219.77 99.247,237.237 106.037,239.872 C 127.755,247.134 150.89,246.916 174.431,242.392 C 184.542,237.742 194.518,231.832 203.863,224.09 C 211.54,217.389 224.362,199.106 232.504,187.888 C 229.393,189.603 226.761,190.442 224.887,191.846 C 220.917,194.361 192.106,205.583 180.936,207.4 C 178.274,207.915 150.025,209.993 145.233,209.22 C 121.913,203.513 108.531,194.136 95.655,174.689 C 83.706,180.901 76.846,167.001 68.826,167.795 C 64.181,170.208 67.837,190.229 74.186,192.711 C 75.336,189.823 74.703,186.059 74.47,183.291 C 83.786,167.608 100.07,209.612 70.809,209.159 C 46.31,201.416 48.175,179.971 46.667,159.92 C 53.576,136.818 62.834,135.862 85.352,142.348 C 90.74,144.606 90.74,144.606 91.026,144.457 C 89.746,123.686 108.33,113.79 125.788,108.451 C 126.134,109.115 138.579,110.115 140.207,110.473 C 151.781,107.711 172.542,130.284 171.117,143.067 C 171.264,143.353 171.413,143.637 171.56,143.922 C 167.415,157.035 166.745,160.153 156.127,168.922 C 153.188,170.452 147.058,172.791 144.509,174.837 C 145.33,175.496 157.177,178.131 159.015,176.333 C 170.976,180.114 212.987,146.002 220.167,134.321 C 212.756,131.186 204.163,128.785 198.134,125.295 C 180.244,133.747 169.532,127.273 160.169,112.263 C 157.542,112.306 154.282,111.829 153.094,112.087 C 152.649,111.234 142.556,107.805 140.819,106.782 C 125.974,95.824 117.889,80.034 139.038,69.048 C 150.744,65.613 163.29,76.318 144.409,79.384 C 131.037,86.33 144.019,100.422 156.064,94.162 C 156.474,92.866 156.106,87.757 155.855,86.805 C 156.043,86.708 156.234,86.609 156.423,86.51 C 160.339,67.854 170.543,63.155 189.654,65.631 C 198.086,70.04 206.518,74.449 215.003,78.955 C 222.886,91.118 247.374,97.906 262.264,99.681 C 266.81,96.838 270.104,90.429 274.994,88.249 C 275.447,86.808 281.444,82.126 283.281,80.329 C 293.276,68.27 303.332,54.015 312.252,40.587 C 309.717,25.045 308.315,14.569 327.852,10.682 C 330.962,10.872 337.576,10.911 341.4,12.315 C 346.379,6.598 354.377,4.367 361.601,1.816 C 366.645,1.685 370.828,3.245 374.292,6.545 C 374.065,7.264 375.324,8.296 376.106,9.337 C 407.078,-3.352 440.797,-8.529 462.706,29.973 C 481.003,34.919 472.145,57.452 457.11,77.441 C 446.451,96.743 409.758,94.18 409.856,92.604 C 409.811,92.747 437.169,149.108 439.294,156.436 C 440.968,159.661 442.097,161.603 445.82,164.365 C 444.743,161.626 440.432,153.621 439.699,151.892 C 432.331,134.538 428.492,99.021 462.545,99.433 C 468.45,101.092 475.814,100.926 480.326,105.608 C 496.264,116.114 506.211,137.803 507.852,157.424 C 507.998,157.711 508.148,157.995 508.438,158.324 C 519.154,155.765 542.705,167.015 542.932,181.591 C 540.372,192.195 533.949,200.228 523.718,203.257 C 520.305,205.03 516.314,206.621 514.533,208.993 C 515.765,211.361 523.2,212.92 527.027,219.362 C 525.124,222.878 523.352,225.724 519.938,227.499"
   style="fill:#231f20;fill-rule:evenodd"
   id="path7" />
			<path
   d="M 516.435,223.54 C 501.541,222.98 500.707,209.072 501.374,206.875 C 503.787,199.238 504.74,193.845 513.179,189.461 C 515.672,189.852 518.361,190.622 521.889,189.994 C 521.836,189.659 521.783,189.324 521.824,188.943 C 519.697,187.399 514.949,186.374 514.767,186.95 C 510.932,186.292 507.048,185.54 504.321,185.392 C 504.3,183.958 505.618,182.553 505.545,181.024 C 511.242,169.271 500.075,158.213 520.541,164.682 C 531.131,169.535 542.193,174.866 534.857,188.797 C 533.304,192.843 525.15,198.384 512.415,204.674 C 505.126,212.436 516.034,214.735 521.209,218.669 C 521.297,221.153 517.953,222.747 516.435,223.54"
   style="fill:#ffffff;fill-rule:evenodd"
   id="path9" />
			<path
   d="M 530.271,184.799 C 530.076,184.653 529.928,184.611 529.882,184.515 C 530.073,175.383 515.672,171.544 519.629,167.562 C 522.13,171.684 536.825,179.101 530.271,184.799"
   style="fill:#231f20;fill-rule:evenodd"
   id="path11" />
			<path
   d="M 482.565,206.331 C 480.32,206.414 479.352,205.712 478.34,205.155 C 477.486,205.598 467.434,213.833 467.278,207.046 L 466.803,207.295 C 464.44,205.755 465.003,205.218 462.757,205.303 C 456.517,215.772 449.424,205.367 445.595,205.189 C 435.302,213.425 430.229,200.647 426.603,201.086 C 415.615,208.141 416.58,193.402 410.853,193.491 C 409.124,198.966 399.274,192.524 399.176,186.311 C 396.754,181.653 387.838,188.842 387.648,176.645 L 376.54,169.169 C 378.269,163.691 370.559,165.772 368.572,161.022 C 368.996,160.681 369.518,160.293 370.086,159.997 C 371.173,150.038 366.383,140.121 365.373,130.528 C 365.519,130.573 365.757,130.571 366.043,130.662 C 364.221,127.153 368.611,117.522 365.548,117.189 C 359.982,128.032 362.646,142.664 365.408,154.237 C 366.028,160.299 362.063,160.549 361.452,164.241 C 355.441,167.366 345.816,167.848 344.518,175.69 C 339.415,176.531 328.935,169.575 329.168,181.377 C 324.899,183.593 327.103,183.895 324.523,187.042 C 324.472,186.948 319.225,187.506 318.743,187.275 C 315.448,190.672 308.579,200.628 303.52,192.055 C 303.81,189.133 300.37,189.234 303.47,185.699 C 303.366,179.221 293.639,185.832 299.144,175.057 C 304.243,170.964 293.97,168.111 300.484,159.787 C 299.928,157.789 298.909,156.753 298.559,155.849 C 300.479,153.286 302.13,148.817 304.615,145.717 C 310.013,154.716 299.959,159.7 307.805,166.462 C 304.904,170.379 303.528,173.986 307.984,177.931 C 296.498,192.209 327.52,195.361 317.27,175.636 C 316.935,175.687 316.602,175.741 316.365,175.747 C 315.087,179.78 319.377,185.018 312.109,187.954 C 307.671,185.441 305.537,180.167 311.29,178.264 C 311.092,177.886 310.895,177.505 310.841,177.17 C 302.338,174.484 312.03,167.642 311.039,165.266 C 304.013,162.174 309.637,155.153 309.503,149.564 C 305.702,138.772 308.489,145.994 309.112,139.769 C 326.667,106.801 287.653,100.098 289.371,127.508 C 289.277,127.556 289.182,127.607 289.137,127.749 C 285.87,125.377 288.33,121.331 287.283,119.317 C 287.706,106.693 295.611,101.502 307.484,102.797 C 307.535,102.894 307.582,102.987 307.63,103.081 C 318.837,101.234 319.519,123.643 315.365,130.015 C 314.979,132.986 316.383,140.086 314.072,142.368 C 314.168,142.32 314.313,142.367 314.552,142.363 C 314.223,142.655 313.044,143.628 314.194,143.994 L 320.079,165.745 C 320.148,167.036 320.215,168.326 320.429,169.661 C 320.472,169.518 320.519,169.373 320.613,169.324 C 322.407,170.92 324.068,170.178 326.852,173.911 C 327.23,173.714 327.705,173.467 328.228,173.316 C 328.115,169.159 323.943,168.314 322.529,166.52 C 326.846,160.576 325.666,160.81 331.579,161.459 C 334.149,157.593 326.746,157.948 334.49,151.756 C 334.243,151.281 333.996,150.807 333.893,150.378 C 329.367,151.167 328.109,153.386 328.365,157.587 C 326.374,158.62 324.568,159.319 323.249,160.488 C 316.891,148.254 314.984,151.771 318.728,137.183 C 315.819,125.326 327.666,106.404 309.365,100.616 C 309.12,100.382 308.927,100.241 308.83,100.055 C 295.831,100.304 292.327,99.353 285.891,112.695 C 282.792,122.493 287.207,141.879 301.623,137.639 C 312.434,132.023 304.921,125.448 303.493,119.685 C 296.989,119.454 295.814,123.678 293.252,128.019 C 282.424,120.157 311.295,98.772 311.157,126.784 C 309.216,134.175 308.847,135.089 308.277,135.145 C 307.926,137.255 297.427,150.659 297.292,145.065 C 296.955,144.881 296.616,144.694 296.375,144.459 C 288.79,148.402 289.129,142.565 282.751,144.434 C 281.865,142.726 281.361,141.059 281.058,140.014 C 272.556,137.327 276.618,137.264 275.014,132.316 C 264.439,130.408 273.367,104.678 277.535,100.401 C 280.999,96.351 291.747,86.689 296.382,91.161 C 299.248,87.787 302.72,88.291 307.823,90.701 C 307.749,91.646 307.972,94.693 308.476,95.661 C 308.519,95.515 308.566,95.373 308.705,95.179 C 311.551,96.712 311.753,97.329 316.188,96.829 C 318.552,101.382 321.822,99.564 323.246,104.846 C 323.885,106.079 325.188,106.967 326.694,108.474 C 321.818,123.892 345.146,117.796 334.421,107.349 C 330.384,106.075 326.718,106.896 325.14,103.859 C 325.461,102.852 330.514,96.541 331.753,96.138 C 335.415,98.389 337.542,103.851 341.49,107.048 C 341.68,106.948 341.918,106.946 342.253,106.89 C 342.496,107.124 342.786,107.456 343.175,107.738 C 342.607,108.521 344.771,113.473 345.28,114.112 C 347.158,114.944 349.744,115.284 350.946,118.755 C 350.709,118.756 350.613,118.809 350.516,118.856 C 350.615,119.047 350.763,119.331 351.005,119.566 C 349.984,122.789 349.955,122.73 351.765,125.434 C 351.549,126.872 351.271,127.496 351.479,128.594 C 351.337,128.547 351.193,128.502 351.096,128.551 C 351.984,130.259 349.181,131.354 348.487,132.798 C 352.035,139.626 345.867,142.591 348.134,146.952 C 347.208,147.908 347.111,149.87 348.098,150.824 C 347.054,151.368 346.263,155.871 345.946,156.881 C 344.897,156.947 343.94,156.959 343.033,157.07 C 343.92,158.77 343.725,159.238 345.428,160.283 L 353.891,117.463 C 344.641,97.58 324.704,81.924 302.788,83.558 C 302.547,83.324 302.448,83.133 302.349,82.943 C 302.21,83.135 302.116,83.425 302.121,83.665 C 278.609,84.079 260.837,109.21 267.865,130.852 C 264.062,132.103 258.17,137.456 262.087,140.355 C 264.762,138.967 262.713,133.06 268.625,133.707 C 274.342,144.708 280.483,149.105 293.38,151.677 C 293.973,152.814 293.857,153.765 294.294,155.057 C 288.414,158.112 275.397,169.451 270.058,164.276 C 265.924,165.822 268.496,171.471 259.107,170.087 C 258.454,168.832 258.87,168.052 257.909,166.856 C 252.598,169.616 251.106,175.088 243.205,171.245 C 239.793,173.018 239.26,175.703 235.415,177.338 C 231.514,175.19 231.11,187.745 221.545,183.1 C 219.282,184.279 217.806,197.42 210.909,190.676 C 204.271,194.124 205.102,198.269 196.244,194.2 L 184.385,197.11 C 183.953,196.972 183.57,196.931 183.187,196.888 C 175.469,210.896 167.93,195.857 165.629,199.027 L 152.467,201.05 C 148.394,206.657 143.616,200.47 141.453,199.785 C 136.369,201.822 136.01,200.207 133.768,197.278 C 134.724,194.248 123.594,197.864 124.347,190.968 L 122.183,190.047 C 116.746,190.945 115.594,187.567 113.729,184.442 C 108.981,183.417 109.516,183.982 107.314,180.672 C 107.404,180.382 107.64,180.141 107.875,179.898 C 106.25,176.769 102.781,175.195 100.901,171.115 L 95.448,155.521 C 97.499,149.036 100.761,152.763 95.799,144.139 L 100.837,136.222 C 97.307,133.601 99.81,128.683 103.518,127.241 C 104.094,127.423 104.947,126.98 106.039,126.533 C 106.076,125.912 106.256,125.096 105.871,124.816 C 105.743,116.692 111.446,120.713 116.981,116.998 C 118.119,113.391 120.747,113.352 124.407,115.061 C 128.107,113.138 130.464,110.953 134.303,115.102 C 139.282,115.643 141.747,112.919 145.427,119.076 C 151.875,115.725 151.997,124.814 158.08,125.63 C 160.393,126.836 166.242,137.164 166.58,140.601 C 162.079,146.073 168.97,149.598 160.613,153.217 C 160.571,153.601 160.529,153.984 160.488,154.365 C 160.3,154.467 160.203,154.514 160.107,154.563 C 155.905,148.865 161.817,149.197 162.315,144.625 C 158.238,146.744 158.407,136.177 158.493,135.41 C 157.964,135.085 157.432,134.757 156.995,134.383 C 157.291,134.951 157.019,135.816 156.642,136.251 C 152.758,135.023 153.454,125.776 149.737,128.76 C 143.888,130.715 146.185,124.704 143.62,122.784 C 142.684,123.374 140.487,124.225 140.507,125.364 C 135.082,126.979 130.501,107.08 123.138,122.348 C 120.502,121.909 117.24,121.196 117.281,123.824 C 113.486,125.794 115.027,126.439 115.087,130.264 C 111.862,131.937 109.308,130.737 108.128,134.481 C 108.271,134.526 108.463,134.668 108.655,134.808 C 106.558,138.186 107.721,139.268 109.933,143.056 C 107.845,144.142 105.881,143.836 104.493,143.717 C 102.046,146.19 105.073,153.41 106.985,156.392 C 107.081,156.342 107.512,156.48 107.52,156.957 L 105.43,157.801 L 114.492,171.764 C 114.867,171.325 115.052,170.99 116.434,170.87 C 116.681,171.347 116.977,171.913 117.369,172.434 C 117.558,172.336 117.747,172.237 118.032,172.089 C 118.403,173.644 120.022,174.925 118.771,176.521 C 118.532,176.528 118.293,176.53 118.149,176.487 C 117.873,177.11 117.595,177.737 117.316,178.361 C 117.365,178.457 117.464,178.645 117.563,178.835 C 120.867,179.166 125.044,174.226 129.083,182.003 C 127.671,189.481 136.421,177.349 140.652,188.037 C 140.794,188.08 140.938,188.128 141.132,188.265 C 147.194,184.636 145.985,186.71 151.446,190.737 C 156.897,187.544 158.302,185.85 164.352,190.774 C 166.939,190.878 167.55,184.176 176.196,186.911 C 176.877,187.521 178.061,190.036 180.242,188.903 C 181.94,181.274 186.265,179.632 193.276,184.778 C 197.014,182.837 196.193,172.43 204.215,178.253 C 207.821,176.377 205.049,167.341 213.92,169.115 C 214.314,169.872 215.319,169.954 216.794,169.547 C 216.738,168.975 216.777,168.352 216.818,167.731 C 206.306,165.124 207.994,169.304 203.113,174.971 C 194.219,174.776 197.224,177.55 192.568,182.257 C 182.517,175.436 183.98,183.347 178.384,186.253 L 164.311,188.149 C 158.428,184.703 157.007,185.441 151.782,187.672 C 150.007,184.259 143.345,183.026 141.742,184.579 C 140.144,183.124 135.653,180.277 135.427,180.999 L 131.784,180.479 L 131.365,181.06 C 127.615,176.625 126.401,175.451 122.105,175.755 C 120.084,171.866 119.825,170.675 117.344,167.991 C 117.922,163.638 117.568,162.789 115.112,159.515 C 115.157,159.372 115.202,159.227 115.296,159.178 C 114.963,159.231 114.773,159.329 114.583,159.427 C 114.05,158.862 113.61,158.248 113.218,157.729 C 113.364,157.774 113.507,157.822 113.747,157.815 C 113.741,157.579 113.739,157.339 113.784,157.194 C 117.864,155.076 117.355,150.16 115.951,146.072 C 120.884,143.508 120.723,142.269 120.826,136.676 C 119.264,131.584 126.343,134.772 126.756,127.455 C 128.365,126.614 131.197,127.43 134.043,125.953 C 136.782,126.819 137.844,129.516 142.777,126.953 C 145.282,131.311 144.628,132.135 150.829,131.321 C 151.698,134.844 152.178,138.089 156.688,139.116 C 156.105,141.707 156.233,143.81 158.658,145.923 C 156.925,151.399 155.529,152.005 159.878,158.054 C 157.117,161.777 155.869,161.462 152.012,162.383 C 148.819,169.22 146.205,167.206 141.428,167.28 C 137.968,178.233 128.041,160.987 127.256,159.469 C 131.132,156.732 138.633,156.568 144.677,151.742 L 129.415,138.6 C 121.449,142.738 124.205,154.071 121.96,157.163 C 130.256,180.315 145.071,183.336 170.534,179.256 C 196.409,167.861 216.831,144.122 238.481,125.525 C 243.584,121.668 288.396,86.221 288.286,82.304 C 296.143,77.257 298.745,66.51 305.301,60.814 C 307.489,53.896 314.372,47.673 317.268,40.264 C 308.513,23.42 319.715,14.347 338.208,15.899 C 340.228,19.787 336.834,30.399 334.123,32.832 C 336.655,37.712 343.205,24.714 342.694,21.393 C 342.169,13.749 365.988,-5.041 376.291,18.268 C 376.178,20.133 377.262,25.231 375.421,26.79 C 375.484,27.6 375.233,27.261 376.3,28.153 C 377.313,26.903 379.154,22.338 379.661,22.075 C 381.526,23.177 385.669,24.257 386.545,25.947 C 386.319,26.666 384.372,27.558 384.276,27.607 C 376.783,25.239 376.068,37.538 369.992,37.2 C 368.992,36.502 368.48,34.659 369.268,33.722 C 366.114,27.651 365.096,45.654 375.58,37.318 C 377.862,35.015 380.038,28.488 384.504,29.899 C 395.675,25.902 381.982,21.332 378.887,19.087 C 378.375,16.945 377.96,14.754 377.542,12.56 C 378.341,11.542 390.195,8.635 393.194,7.678 C 419.121,2.878 438.879,10.076 455.466,31.565 C 459.924,35.512 465.898,38.429 468.148,45.086 C 460.475,55.579 451.004,88.804 432.552,85.744 C 424.68,89.835 394.911,75.19 393.171,76.941 C 398.295,86.805 405.718,96.919 411.156,108.545 C 410.968,108.643 421.55,131.327 423.309,133.785 C 423.214,133.835 423.167,133.979 423.122,134.124 C 422.978,134.079 422.834,134.032 422.688,133.987 C 422.843,134.511 425.542,139.249 426.174,139.762 C 425.841,139.818 425.6,139.821 425.411,139.921 C 429.359,144.972 431.383,152.112 435.486,157.686 C 435.389,157.737 435.294,157.788 435.251,157.929 C 430.297,156.049 423.568,147.501 420.657,144.678 C 415.328,146.546 422.953,152.307 424.496,154.847 C 424.356,155.04 424.309,155.186 424.311,155.423 C 425.315,155.266 436.879,167.323 442.93,169.233 C 451.826,175.691 468.245,183.419 477.513,170.656 C 478.062,169.166 481.715,148.842 479.393,147.157 C 479.156,144.742 474.363,135.234 474.605,134.467 C 469.563,132.875 465.234,125.008 459.404,134.418 C 453.588,147.557 465.959,156.066 474.013,163.921 C 472.405,168.011 468.232,170.179 464.798,170.759 C 461.006,163.454 453.065,156.983 454.518,149.122 C 453.714,146.649 452.84,145.658 451.909,144.094 C 452.693,142.362 452.991,139.92 452.873,138.534 C 452.968,138.485 453.112,138.53 453.351,138.526 C 452.464,136.82 451.627,135.209 450.788,133.595 C 451.726,132.386 452.106,129.178 451.703,127.7 C 455.306,125.83 455.969,125.485 456.907,121.262 C 458.194,120.956 460.962,120.723 463.769,119.866 C 465.151,122.524 467.163,122.921 470.842,122.814 C 472.187,126.332 472.694,128.233 478.156,129.009 C 481.191,133.695 485.491,139.651 490.2,144.311 L 489.343,147.765 C 485.097,151.179 487.831,155.055 489.623,159.425 C 488.007,163.036 488.186,165.469 489.588,169.559 C 485.299,173.354 484.64,177.187 485.682,182.43 C 482.46,184.585 479.086,188.747 481.007,192.444 C 481.532,192.293 482.053,192.142 482.627,192.085 C 483.203,186.243 487.831,185.647 488.791,182.621 C 484.402,174.181 492.14,173.773 492.643,169.178 C 487.601,167.582 492.6,160.286 492.95,158.177 C 484.426,154.06 493.949,148.747 491.065,144.585 C 491.395,144.293 491.726,144.001 492.196,143.754 C 492.194,143.517 492.193,143.275 492.283,142.989 C 485.509,140.848 488.397,135.975 487.086,134.61 C 478.734,132.444 483.047,130.083 481.224,126.575 C 471.679,127.443 475.581,123.365 472.995,120.011 C 469.135,120.694 468.093,121.234 466.151,119.354 C 462.431,110.807 463.124,121.406 455.844,117.362 C 455.464,117.56 455.18,117.707 454.894,117.854 C 454.256,119.871 454.338,122.118 453.799,124.323 C 451.95,125.284 450.697,124.921 449.24,126.214 C 449.498,127.404 449.788,130.745 449.004,132.478 L 448.376,132.201 C 448.198,133.016 448.071,133.927 447.939,134.836 C 450.535,135.657 449.973,145.703 452.192,149.969 C 451.971,151.169 452.134,152.41 451.294,153.808 C 451.32,155.482 458.766,160.768 455.713,164.399 C 455.713,164.399 463.63,169.198 461.512,171.386 C 460.887,171.108 460.887,171.108 459.358,171.18 C 453.306,169.264 455.472,164.163 451.216,161.075 C 448.278,162.603 448.021,152.137 447.922,151.947 C 439.147,147.114 445.581,142.807 443.334,139.878 C 439.11,135.691 440.077,136.393 441.519,130.825 C 442.089,130.528 442.754,130.185 443.418,129.84 C 444.132,123.567 437.582,123.477 446.685,118.748 C 445.98,110.199 447.868,114.762 453.082,112.051 C 453.055,110.141 452.911,110.334 454.034,108.787 C 453.651,108.745 453.363,108.654 453.075,108.563 C 453.88,105.011 457.464,101.708 459.896,107.548 C 464.529,107.43 463.125,100.088 468.866,109.51 C 471.38,111.339 471.804,101.962 476.341,110.688 C 479.047,112.652 482.213,107.151 483.978,116.112 C 484.458,116.342 485.085,116.619 485.712,116.896 C 486.181,116.413 486.701,116.018 487.22,115.63 C 488.348,117.333 492.03,120.717 489.403,123.772 C 489.411,124.246 489.465,124.818 489.619,125.344 C 490.053,125.482 490.534,125.712 491.015,125.944 L 495.148,133.431 C 494.724,134.012 494.401,134.543 494.123,135.168 C 496.751,138.139 502.269,139.487 499.419,146.749 C 496.972,149.467 502.582,150.523 502.333,156.074 C 501.861,156.319 500.597,161.071 498.986,162.147 C 504.029,163.741 504.703,173.148 499.297,175.959 C 501.544,179.474 500.202,187.829 494.168,190.423 C 495.964,201.294 487.063,197.608 484.934,202.088 C 485.018,204.334 483.556,205.458 482.565,206.331"
   style="fill:#ffffff;fill-rule:evenodd"
   id="path13" />
			<path
   d="M 478.917,193.053 C 473.239,190.705 467.419,188.308 465.048,195.802 C 464.527,195.952 464.004,196.106 463.626,196.302 C 461.041,193.188 451.072,188.371 451.212,194.202 C 450.497,194.453 449.833,194.797 449.265,195.092 C 449.118,194.808 448.969,194.522 448.87,194.333 C 451.932,188.406 458.702,187.297 463.905,192.902 C 469.24,185.557 482.446,189.413 478.917,193.053"
   style="fill:#231f20;fill-rule:evenodd"
   id="path15" />
			<path
   d="M 446.715,194.129 C 446.238,194.136 445.854,194.092 445.519,194.146 C 441.481,186.37 435.667,184.453 429.043,188.858 C 425.354,185.235 427.114,178.42 417.656,182.01 C 417.609,182.153 417.564,182.298 417.566,182.535 C 416.858,183.023 416.858,183.023 416.046,183.086 C 411.779,176.269 412.785,173.097 404.651,175.758 C 403.353,175.348 401.744,167.151 398.844,165.045 C 398.56,165.194 398.369,165.29 398.179,165.389 C 396.142,163.318 394.023,165.503 392.838,166.24 C 390.678,165.555 390.199,162.55 389.756,161.698 C 384.222,156.144 384.284,160.205 381.058,158.628 C 380.958,152.178 376.869,150.568 372.818,151.349 C 372.526,151.019 372.33,150.64 372.181,150.355 C 376.533,144.359 381.109,152.703 383.079,156.495 C 387.607,155.709 390.328,158.387 393.075,162.984 C 399.833,161.156 404.098,164.962 405.797,172.631 C 410.506,171.269 414.99,173.635 416.99,179.341 C 421.791,177.689 427.747,179.412 430.13,185.156 C 437.146,184.285 445.592,183.389 446.715,194.129"
   style="fill:#231f20;fill-rule:evenodd"
   id="path17" />
			<path
   d="M 474.931,158.268 C 468.016,156.082 460.877,142.81 465.44,138.15 C 465.852,136.854 467.268,135.634 469.365,135.267 C 475.629,138.518 477.366,151.826 475.271,158.456 C 475.125,158.409 474.984,158.364 474.931,158.268"
   style="fill:#ffffff;fill-rule:evenodd"
   id="path19" />
			<path
   d="M 219.143,268.176 C 215.814,269.184 213.03,268.46 211.554,268.866 C 208.639,278.09 200.585,273.483 196.399,274.694 C 192.362,279.68 189.487,279.01 184.752,278.939 C 178.078,289.273 173.718,279.493 169.322,279.607 C 163.332,287.781 158.714,279.585 155.828,278.673 C 150.422,281.48 150.287,278.902 147.268,278.425 C 140,281.356 141.357,276.316 137.611,275.131 C 132.701,276.117 131.484,274.699 129.528,271.865 C 124.401,271.033 118.323,267.45 116.141,268.582 C 111.361,268.657 111.175,265.744 108.807,264.203 C 101.914,266.7 95.25,259.206 91.2,256.973 C 79.047,256.062 89.757,250.256 93.576,255.981 C 99.47,256.893 98.074,253.28 102.574,259.856 C 105.538,259.76 107.183,258.063 111.051,260.872 C 113.12,264.854 113.073,261.747 118.038,261.336 C 117.991,261.479 117.946,261.626 117.995,261.72 C 121.925,262.328 121.154,265.016 124.192,266.689 C 128.931,264.226 131.199,265.578 134.092,270.217 C 137.55,271.309 141.49,266.372 146.896,272.836 C 149.38,272.752 156.158,266.096 160.151,273.777 C 161.748,265.721 168.937,273.067 172.765,273.484 C 174.957,269.819 175.638,267.657 180.243,265.626 C 183.992,266.81 184.396,271.298 187.354,264.939 C 192.097,259.467 195.461,263.62 199.288,260.786 C 199.818,251.843 208.017,256.493 211.375,254.146 C 210.773,252.292 210.773,252.292 210.7,250.764 C 212.209,249.495 212.81,248.102 215.86,247.481 C 217.006,248.314 219.846,248.184 221.272,248.163 C 222.527,242.692 221.466,242.04 226.718,238.708 C 227.87,239.07 234.652,238.68 231.316,236.198 C 231.595,229.551 233.72,230.856 238.934,228.144 C 239.726,220.627 237.348,215.359 247.978,213.331 C 249.278,210.967 249.578,193.467 259.451,201.104 C 263.052,202.244 260.374,177.621 271.064,188.687 C 272.864,187.751 274.415,167.557 283.843,177.588 C 284.176,177.537 284.511,177.484 284.937,177.382 C 289.15,183.866 286.772,196.903 277.405,193.943 C 273.214,190.167 275.654,202.107 273.749,201.506 C 271.288,209.285 264.542,205.805 261.994,207.852 C 262.709,214.102 261.779,215.553 257.005,219.116 C 255.185,218.859 254.46,218.39 253.608,218.832 C 253.309,224.288 264.09,219.769 264.708,210.298 C 271.362,207.804 277.23,207.042 277.309,196.765 C 278.162,196.32 287.2,196.563 287.145,192.979 C 292.265,190.319 288.375,173.792 283.631,173.005 C 283.444,173.342 283.353,173.631 283.314,174.015 C 274.005,168.853 271.97,179.307 270.284,184.635 C 261.904,180.561 258.785,192.179 258.529,197.249 C 249.875,197.049 245.105,203.863 245.649,211.167 C 237.768,214.54 235.86,217.818 236.848,225.978 C 226.793,231.202 232.765,230.872 228.553,236.671 C 222.95,236.091 219.764,240.154 219.359,244.94 C 216.706,246.319 207.27,245.082 208.276,251.423 C 203.521,252.933 197.652,253.691 196.824,259.058 C 190.945,258.862 186.755,259.834 185.067,265.171 C 179.572,265.255 181.004,261.982 175.085,265.659 C 174.946,265.85 171.764,270.395 171.288,270.403 C 164.097,265.829 164.708,268.401 158.95,270.068 C 156.176,266.813 151.032,268.039 148.551,268.366 C 148.796,268.841 147.569,269.72 147.283,269.868 C 143.734,267.29 139.151,265.865 135.106,267.522 C 132.889,263.254 127.391,263.343 124.674,263.67 C 122.555,259.592 116.239,259.261 113.437,260.355 C 109.953,257.588 107.12,256.773 103.969,257.207 C 99.019,252.311 88.56,249.798 83.549,253.362 C 81.676,252.772 81.759,252.005 81.177,251.344 C 72.718,251.525 73.466,250.654 67.59,253.708 C 65.404,251.591 50.215,264.54 50.215,264.54 C 31.963,274.027 18.802,274.241 6.013,253.185 C -3.004,235.831 5.581,193.316 28.717,206.943 C 33.12,209.539 36.051,220.595 31.007,225.025 C 28.418,215.408 27.598,205.598 14.629,214.022 C 1.066,227.09 7.385,252.111 23.438,260.99 C 38.209,263.918 46.156,261.834 54.311,248.084 C 71.303,234.432 77.933,251.825 93.981,247.943 C 93.833,247.659 93.734,247.47 93.732,247.232 C 84.863,245.697 70.351,237.7 62.511,240.689 C 62.364,240.405 62.266,240.215 62.262,239.976 C 72.672,233.123 82,236.945 94.336,240.05 C 94.385,240.146 94.483,240.334 94.583,240.524 C 103.262,242.399 115.698,248.944 125.973,248.785 C 141.47,252.652 161.5,249.714 178.134,246.488 L 205.818,228.613 C 219.945,218.019 230.04,200.13 241.39,186.042 C 248.158,175.661 247.443,178.683 261.494,175.597 C 268.814,176.009 277.083,169.903 284.957,169.064 C 286.253,167.085 290.045,163.798 292.073,162.596 C 291.841,172.112 290.599,178.298 294.464,187.13 C 292.772,188.971 294.466,193.39 294.655,196.303 C 292.254,207.907 287.341,205.405 279.73,207.911 C 279.002,210.218 280.54,226.16 270.883,223.106 C 269.175,220.742 269.231,221.314 267.663,221.769 C 268.415,227.99 269.175,236.175 260.552,237.988 C 249.028,237.595 254.364,248.792 242.817,250.215 C 242.626,250.075 242.478,250.03 242.431,249.935 C 236.361,253.087 237.307,258.618 229.174,261.276 C 226.201,258.844 221.502,266.95 219.143,268.176"
   style="fill:#ffffff;fill-rule:evenodd"
   id="path21" />
			<path
   d="M 353.407,181.67 C 335.356,182.62 355.744,159.979 359.959,172.724 C 359.077,177.519 357.294,179.649 353.407,181.67"
   style="fill:#ffffff;fill-rule:evenodd"
   id="path23" />
			<path
   d="M 340.547,184.739 C 320.459,190.118 337.75,164.755 343.937,181.29 C 343.14,182.308 342.437,183.274 341.736,184.242 C 341.307,184.343 340.928,184.541 340.547,184.739"
   style="fill:#ffffff;fill-rule:evenodd"
   id="path25" />
			<path
   d="M 127.577,275.527 C 127.383,275.386 127.19,275.248 127.048,275.202 C 127.044,274.959 127.041,274.724 127.037,274.483 C 127.185,274.77 127.381,275.149 127.577,275.527"
   style="fill:#ffffff;fill-rule:evenodd"
   id="path27" />
			<path
   d="M 340.495,150.563 C 329.814,152.259 331.221,141.29 339.596,138.864 C 339.497,138.675 339.545,138.531 339.59,138.388 C 329.932,135.335 333.8,125.858 336.074,133.708 C 340.106,137.996 341.707,133.191 341.215,129.231 C 340.881,129.285 340.692,129.38 340.501,129.481 C 340.013,128.773 339.573,128.157 339.135,127.542 C 333.771,126.958 333.447,127.727 331.699,122.737 C 332.212,122.105 331.589,121.829 333.499,121.797 C 334.235,122.984 334.969,124.165 335.802,125.299 C 339.488,125.671 341.302,122.442 338.528,119.187 C 337.954,119.243 337.382,119.302 336.806,119.355 C 336.656,118.833 336.598,118.261 336.543,117.688 C 340.241,115.765 342.732,119.169 342.227,123.526 C 340.013,128.772 348.5,130.504 340.159,138.091 C 340.259,138.279 340.404,138.565 340.553,138.849 C 346.3,139.479 345.806,147.804 340.495,150.563"
   style="fill:#231f20;fill-rule:evenodd"
   id="path29" />
			<path
   d="M 339.836,148.134 C 331.604,150.605 337.548,142.339 337.288,141.149 C 340.783,141.38 346.094,144.884 339.836,148.134"
   style="fill:#ffffff;fill-rule:evenodd"
   id="path31" />
			<path
   d="M 351.664,128.018 C 351.753,127.49 351.841,126.963 351.976,126.531 C 352.418,127.386 352.331,127.911 351.664,128.018"
   style="fill:#ffffff;fill-rule:evenodd"
   id="path33" />
			<path
   d="M 301.44,134.967 C 294.922,137.025 293.311,134.853 290.276,130.408 C 290.418,130.212 290.702,130.065 290.988,129.918 C 294.813,133.11 297.254,124.131 301.234,121.823 C 306.603,122.886 305.612,132.799 301.44,134.967"
   style="fill:#ffffff;fill-rule:evenodd"
   id="path35" />
			<path
   d="M 333.659,115.035 C 331.544,116.607 329.887,116.934 327.829,112.839 C 326.483,110.169 328.944,108.19 331.433,108.067 C 333.453,107.969 337.156,112.445 333.659,115.035"
   style="fill:#ffffff;fill-rule:evenodd"
   id="path37" />
			<path
   d="M 240.295,159.148 C 238.853,158.691 238.324,158.366 237.322,158.525 C 235.499,155.018 229.188,158.497 227.959,159.137 C 226.365,164.642 224.749,164.607 220.897,165.855 C 220.164,163.52 223.671,164.31 224.624,162.594 C 227.84,157.43 227.309,153.852 235.828,154.725 C 236.073,155.197 236.368,155.528 237.665,155.938 C 241.49,150.668 237.371,142.562 249.87,144.659 C 250.438,144.365 254.987,132.723 259.418,137.77 C 258.597,140.363 250.188,140.638 252.948,145.947 C 253.045,145.898 253.187,145.945 253.333,145.99 C 252.58,146.862 252.398,147.438 251.061,147.411 C 238.208,141.687 240.683,159.431 240.295,159.148"
   style="fill:#231f20;fill-rule:evenodd"
   id="path39" />
			<path
   d="M 323.238,98.346 C 322.331,98.456 321.427,98.564 320.613,98.627 C 318.523,96.221 317.207,94.616 320.905,92.694 C 321.868,93.156 322.831,93.62 323.796,94.084 C 323.696,93.894 323.694,93.655 323.688,93.416 C 323.834,93.461 324.026,93.602 324.316,93.691 C 324.169,93.407 324.017,93.123 323.873,92.839 C 323.303,93.135 323.34,92.514 323.287,92.182 C 324.149,92.213 325.11,92.677 325.315,93.534 C 325.031,93.68 324.796,93.924 324.561,94.167 C 325.19,94.683 325.914,95.149 326.639,95.618 C 326.088,97.347 324.091,97.902 323.238,98.346"
   style="fill:#ffffff;fill-rule:evenodd"
   id="path41" />
			<path
   d="M 392.809,56.775 C 390.953,53.276 394.788,48.762 387.306,47.11 C 390.318,45.016 392.13,45.428 393.906,47.294 C 399.136,40.089 388.914,31.31 382.131,46.187 C 379.942,48.648 380.121,55.376 380.679,57.299 C 372.952,55.608 381.478,42.41 383.727,38.132 C 399.304,25.7 402.382,48.308 392.809,56.775"
   style="fill:#231f20;fill-rule:evenodd"
   id="path43" />
			<path
   d="M 335.051,86.31 C 330.802,83.697 331.457,76.613 331.065,72.843 C 328.315,74.274 326.142,79.133 324.36,81.263 C 323.88,81.034 323.397,80.801 323.056,80.614 C 325.179,75.658 331.76,62.364 336.435,61.622 C 336.729,62.189 335.542,84.245 335.386,86.495 C 335.243,86.448 335.1,86.403 335.051,86.31"
   style="fill:#231f20;fill-rule:evenodd"
   id="path45" />
			<path
   d="M 314.917,94.844 C 303.9,96.593 312.522,82.355 317.696,92.315 C 316.706,93.188 315.81,94.016 314.917,94.844"
   style="fill:#ffffff;fill-rule:evenodd"
   id="path47" />
			<path
   d="M 224.46,130.524 C 222.009,129.75 222.527,129.119 221.74,127.84 C 217.523,127.142 215.806,130.563 212.659,127.984 C 209.357,121.63 206.444,127.84 202.29,121.932 C 207.793,116.3 209.428,104.611 216.092,115.12 C 216.818,115.586 218.243,115.086 218.182,114.274 C 218.941,113.88 219.127,113.543 221.237,113.892 C 221.19,114.035 221.145,114.178 221.194,114.274 C 222.997,113.337 224.919,117.037 225.956,119.029 C 227.107,119.394 234.974,112.053 237.873,120.182 C 232.958,123.698 228.673,127.972 224.46,130.524"
   style="fill:#ffffff;fill-rule:evenodd"
   id="path49" />
			<path
   d="M 78.858,204.251 C 60.802,207.973 44.229,175.154 57.84,165.19 C 57.883,164.808 57.883,164.808 55.773,161.445 C 55.908,160.775 56.091,160.199 56.275,159.625 C 56.367,159.573 56.51,159.618 56.656,159.664 C 56.636,158.467 57.023,158.75 58.347,157.82 C 60.027,158.274 59.795,158.755 62.268,157.95 C 63.65,154.583 65.787,150.583 69.932,155.777 C 70.501,155.479 71.118,155.279 71.831,155.03 C 73.834,148.69 82.528,160.549 84.153,160.431 C 85.212,157.832 87.446,157.035 90.945,157.742 C 90.485,161.957 92.171,165.899 94.006,170.124 C 87.462,173.523 76.373,167.483 71.825,163.825 C 70.968,161.017 70.968,161.017 70.28,159.929 C 67.934,159.582 66.096,164.391 65.442,165.215 C 63.246,165.395 62.815,165.494 62.111,166.222 C 63.205,169.026 65.154,174.395 62.571,177.544 C 63.302,181.501 64.131,185.406 65.004,189.408 C 68.004,191.703 71.005,194.001 74.052,196.389 C 79.931,193.335 75.824,187.281 77.602,184.91 C 76.959,183.677 78.226,181.938 79.751,181.865 C 85.961,187.554 86.23,198.734 78.858,204.251"
   style="fill:#ffffff;fill-rule:evenodd"
   id="path51" />
			<path
   d="M 240.423,118.134 C 240.417,117.655 240.456,117.275 240.499,116.888 C 240.159,116.7 239.824,116.516 239.534,116.428 C 239.834,117.234 239.834,117.234 239.648,117.573 C 238.208,117.116 238.009,116.499 237.28,115.794 C 237.421,115.6 237.561,115.405 237.793,115.162 C 237.301,114.215 237.056,113.74 236.236,113.323 C 236.002,113.568 235.766,113.809 235.624,114.002 C 235.385,114.007 235.242,113.96 235.097,113.914 C 234.867,114.156 234.723,114.349 234.582,114.545 C 230.081,113.994 229.712,114.908 226.959,116.098 C 223.883,112.034 220.856,111.077 216.813,112.336 C 215.888,111.248 215.107,110.213 214.327,109.171 C 212.415,109.201 211.257,108.596 209.779,108.763 C 209.537,108.53 209.343,108.388 209.246,108.201 C 209.772,96.002 205.314,89.045 195.696,82.359 C 194.012,81.669 189.344,79.637 188.925,80.217 C 175.807,78.843 170.285,86.53 160.67,92.128 C 159.535,89.948 160.459,87.784 160.57,85.917 C 160.716,85.962 160.862,86.007 161.1,86.005 C 156.565,77.278 175.899,69.522 182.83,69.414 C 189.778,70.504 198.606,72.656 204.635,79.164 C 205.393,78.768 209.951,82.902 211.359,84.218 C 226.931,95.88 234.16,102.839 255.183,105.284 C 255.924,106.709 243.397,115.747 242.022,116.581 C 241.977,116.724 241.93,116.869 241.936,117.109 C 241.368,117.403 240.848,117.791 240.423,118.134"
   style="fill:#ffffff;fill-rule:evenodd"
   id="path53" />
			<path
   d="M 113.68,168.815 C 113.062,169.015 112.539,169.168 112.066,169.413 C 111.918,169.129 111.817,168.937 111.816,168.7 C 111.861,168.554 112.003,168.363 112.141,168.171 C 111.949,168.029 111.898,167.936 111.849,167.84 C 111.707,168.034 111.569,168.228 111.477,168.516 C 109.775,166.63 108.032,165.128 107.242,163.611 C 107.338,163.56 106.668,160.416 107.325,159.594 C 111.36,160.868 114.491,159.242 115.002,167.648 C 114.481,168.037 114.056,168.378 113.68,168.815"
   style="fill:#ffffff;fill-rule:evenodd"
   id="path55" />
			<path
   d="M 189.302,125.907 C 188.875,126.011 188.539,126.062 188.204,126.117 C 187.191,125.32 186.467,125.09 186.55,124.089 C 186.026,124.237 185.304,124.01 184.87,123.634 C 183.353,124.424 183.303,124.327 182.459,125.249 C 177.051,125.047 178.248,122.016 176.23,121.38 C 171.382,123.176 170.725,120.749 170.863,117.302 C 166.413,114.076 167.034,117.124 165.56,111.266 C 168.781,109.592 171.752,106.964 175.647,105.422 C 189.38,124.664 204.186,96.375 179.732,97.52 C 173.376,100.82 161.348,111.046 154.79,107.468 C 134.388,107.833 120.052,83.725 139.992,71.8 C 141.564,71.585 149.2,70.75 150.677,73.592 C 149.72,76.619 131.44,72.267 136.227,90.978 C 148.94,115.445 168.104,87.663 181.989,82.857 C 192.011,81.746 196.884,84.634 203.381,93.662 C 203.873,94.611 206.929,100.489 205.422,101.996 C 205.585,103.235 205.892,104.521 206.2,105.807 C 205.308,106.869 204.835,107.358 204.473,108.508 C 208.662,116.572 196.005,117.246 196.975,121.198 C 194.601,125.443 192.038,120.508 190.627,124.978 C 190.151,125.225 189.728,125.568 189.302,125.907"
   style="fill:#ffffff;fill-rule:evenodd"
   id="path57" />
			<path
   d="M 345.488,44.511 C 343.843,46.084 355.442,25.295 349.914,21.739 C 349.368,23.468 348.814,24.72 349.374,26.955 C 349.088,27.104 348.806,27.254 348.665,27.445 C 346.497,23.271 345.359,20.854 350.107,18.627 C 358.738,23.485 349.221,42.572 345.488,44.511"
   style="fill:#231f20;fill-rule:evenodd"
   id="path59" />
			<path
   d="M 134.355,152.049 C 131.457,153.194 128.977,153.519 126.827,153.553 C 122.145,144.547 143.84,128.815 141.921,146.676 C 139.229,148.916 136.96,150.577 134.355,152.049"
   style="fill:#ffffff;fill-rule:evenodd"
   id="path61" />
			<path
   d="M 365.753,29.043 C 356.338,29.238 359.119,5.152 370.228,15.398 C 371.261,20.4 370.685,26.48 365.753,29.043"
   style="fill:#231f20;fill-rule:evenodd"
   id="path63" />
			<path
   d="M 111.658,155.657 C 96.311,152.307 117.375,135.823 114.403,153.745 C 113.409,154.384 112.511,154.973 111.658,155.657"
   style="fill:#ffffff;fill-rule:evenodd"
   id="path65" />
			<path
   d="M 187.467,109.398 C 175.239,106.96 179.68,97.427 187.863,104.133 C 189.195,106.693 189.781,107.593 187.467,109.398"
   style="fill:#ffffff;fill-rule:evenodd"
   id="path67" />
			<path
   d="M 116.245,143.155 C 108.943,143.939 110.698,136.885 109.087,134.711 C 109.562,134.464 117.58,130.658 116.577,133.829 C 120.627,136.06 118.557,141.349 116.245,143.155"
   style="fill:#ffffff;fill-rule:evenodd"
   id="path69" />
			<path
   d="M 90.947,154.733 C 86.889,155.035 85.885,154.954 83.324,156.288 C 82.057,154.777 80.841,153.361 79.623,151.944 C 79.432,152.046 79.338,152.094 79.293,152.24 C 74.831,151.305 73.062,151.382 70.263,152.475 C 61.544,148.212 63.826,153.77 59.748,155.888 C 51.393,153.247 55.204,164.753 53.294,164.783 C 53.247,164.928 53.297,165.024 53.396,165.212 C 52.406,166.089 52.406,166.089 52.021,166.046 C 45.663,153.814 60.243,144.551 70.96,145.244 C 76.902,146.252 83.913,148.154 90.825,150.098 C 91.08,151.051 91.745,153.717 90.947,154.733"
   style="fill:#ffffff;fill-rule:evenodd"
   id="path71" />
			<path
   d="M 121.698,131.168 C 117.861,130.27 116.653,129.572 117.27,126.121 C 117.366,126.074 117.51,126.119 117.748,126.111 C 118.217,125.389 118.777,124.616 119.34,123.843 C 120.683,124.107 122.023,124.374 123.416,124.734 C 123.814,125.731 124.209,126.73 124.61,127.728 C 124.144,128.451 123.722,129.032 123.781,129.844 C 123.022,130.238 122.312,130.729 121.698,131.168"
   style="fill:#ffffff;fill-rule:evenodd"
   id="path73" />
			<path
   d="M 131.39,124.325 C 122.239,125.949 125.644,114.423 132.78,121.434 C 132.847,122.726 132.677,124.018 131.39,124.325"
   style="fill:#ffffff;fill-rule:evenodd"
   id="path75" />
		</g>
	</svg>